#N canvas 827 239 734 565 12;
#X obj 368 570 dac~, f 16;
#X obj 368 296 adc~;
#X obj 713 288 *~ 0.1;
#X obj 713 261 phasor~;
#X obj 620 220 r bang;
#X obj 713 215 r bang;
#X obj 620 395 hv.tanh~;
#X obj 696 395 hv.tanh~;
#X obj 368 435 hv.compressor2~;
#X obj 368 544 hv.tanh~;
#X obj 457 544 hv.tanh~;
#X obj 368 458 *~ 8;
#X obj 457 458 *~ 8;
#N canvas 733 172 450 300 (subpatch) 0;
#X obj 1236 874 int;
#X obj 1236 845 random 3;
#X obj 1281 957 mtof;
#X obj 1236 693 sel 1;
#X obj 1236 665 tgl 25 0 empty empty empty 0 -10 0 10 #191919 #e1e1e1 #e1e1e1 0 1;
#X obj 1236 719 tgl 25 0 empty empty empty 0 -10 0 10 #191919 #e1e1e1 #e1e1e1 0 1;
#X obj 1236 751 sel 1;
#X obj 1236 785 tgl 25 0 empty empty empty 0 -10 0 10 #191919 #e1e1e1 #e1e1e1 0 1;
#X obj 1236 817 sel 1;
#X obj 1236 900 sel 0 1, f 22;
#X obj 1281 984 sig~ 65.406;
#X msg 1236 926 55;
#X msg 1303 926 53;
#X obj 1236 640 inlet;
#X obj 1281 1011 outlet~;
#X connect 0 0 9 0;
#X connect 1 0 0 0;
#X connect 2 0 10 0;
#X connect 3 0 5 0;
#X connect 4 0 3 0;
#X connect 5 0 6 0;
#X connect 6 0 7 0;
#X connect 7 0 8 0;
#X connect 8 0 1 0;
#X connect 9 0 11 0;
#X connect 9 1 12 0;
#X connect 10 0 14 0;
#X connect 11 0 2 0;
#X connect 12 0 2 0;
#X connect 13 0 4 0;
#X restore 713 239 pd;
#N canvas 733 172 450 300 (subpatch) 0;
#X obj 939 1033 complex-mod~;
#X obj 1083 965 hsl 128 17 0 2000 0 0 empty empty empty -2 -8 0 10 #191919 #e1e1e1 #e1e1e1 0 1;
#X obj 1080 989 sig~;
#X msg 1080 938 \$1;
#X obj 910 815 int;
#X obj 910 790 random 3;
#X obj 910 841 sel 0 1 2, f 38;
#X msg 910 867 36;
#X msg 993 867 43;
#X obj 1077 914 mtof;
#X obj 939 997 hilbert~;
#X obj 939 969 osc~ 65.406;
#X msg 1077 867 48;
#X obj 910 706 sel 1;
#X obj 910 678 tgl 25 0 empty empty empty 0 -10 0 10 #191919 #e1e1e1 #e1e1e1 0 1;
#X obj 910 732 tgl 25 0 empty empty empty 0 -10 0 10 #191919 #e1e1e1 #e1e1e1 0 1;
#X obj 910 764 sel 1;
#X obj 910 654 inlet;
#X obj 938 1100 outlet~;
#X obj 1014 1099 outlet~;
#X connect 0 0 18 0;
#X connect 0 1 19 0;
#X connect 1 0 2 0;
#X connect 2 0 0 2 32.................M....76+++eC....+9+++mA....;
#X connect 3 0 1 0;
#X connect 4 0 6 0;
#X connect 5 0 4 0;
#X connect 6 0 7 0;
#X connect 6 1 8 0;
#X connect 6 2 12 0;
#X connect 7 0 9 0 32.................N....bJ...fC....mB...vA....;
#X connect 8 0 9 0 32.................N....PE...fC....TA...vA....;
#X connect 9 0 3 0;
#X connect 10 0 0 0;
#X connect 10 1 0 1;
#X connect 11 0 10 0;
#X connect 12 0 9 0 32.................N.........fC.........vA....;
#X connect 13 0 15 0;
#X connect 14 0 13 0;
#X connect 15 0 16 0;
#X connect 16 0 5 0;
#X connect 17 0 14 0;
#X restore 620 247 pd;
#N canvas 733 172 450 300 lead 0;
#X obj 652 669 env~ 1024;
#X obj 652 732 change;
#X obj 652 700 > 75;
#X obj 686 939 clip~ -1 1;
#X obj 686 912 *~ 40;
#X obj 686 970 *~ 1;
#X obj 652 856 osc~;
#X obj 716 856 osc~;
#X obj 507 680 hsl 128 26 50 2000 0 0 empty empty empty -2 -8 0 10 #191919 #e1e1e1 #e1e1e1 0 1;
#X obj 716 826 *~ 2;
#X obj 686 997 hv.tanh~;
#N canvas 733 172 450 300 env 0;
#X obj 615 170 tgl 19 0 empty empty empty 17 7 0 10 #dfdfdf #000000 #000000 0 1;
#X obj 558 242 line;
#X obj 556 216 pack;
#X obj 454 170 inlet;
#X obj 652 133 inlet;
#X obj 686 646 outlet;
#X connect 0 0 2 0;
#X connect 1 0 5 0;
#X connect 2 0 1 0;
#X connect 3 0 2 1;
#X connect 4 0 0 0;
#X restore 504 769 pd env;
#N canvas 733 172 450 300 midi 0;
#X obj 652 438 mtof;
#X obj 658 413 hsl 128 17 0 1000 0 0 empty empty empty -2 -8 0 10 #191919 #e1e1e1 #e1e1e1 0 1;
#X obj 652 464 sig~;
#X obj 652 299 sel 0 1 2 3 4 5 6 7 8 9 10 11, f 63;
#X msg 652 326 36;
#X msg 687 326 38;
#X msg 722 326 40;
#X msg 756 326 41;
#X msg 792 326 43;
#X msg 827 326 45;
#X msg 863 326 47;
#X msg 898 326 48;
#X msg 933 326 50;
#X msg 968 326 52;
#X msg 1003 326 53;
#X msg 1038 327 55;
#X msg 1074 327 57;
#X obj 652 383 + 12;
#X obj 652 271 inlet;
#X obj 716 502 outlet~;
#X connect 0 0 2 0;
#X connect 1 0 0 0;
#X connect 2 0 19 0;
#X connect 3 0 4 0;
#X connect 3 1 5 0;
#X connect 3 2 6 0;
#X connect 3 3 7 0;
#X connect 3 4 8 0;
#X connect 3 5 9 0;
#X connect 3 6 10 0;
#X connect 3 7 11 0;
#X connect 3 8 12 0;
#X connect 3 9 13 0;
#X connect 3 10 14 0;
#X connect 3 11 15 0;
#X connect 3 12 16 0;
#X connect 4 0 17 0 32.................S.........vD.........XB....;
#X connect 5 0 17 0 32.................S....38++++D....d++++aB....;
#X connect 6 0 17 0 32.................S....r6++++D....69+++aB....;
#X connect 7 0 17 0 32.................T....j4+++OE....Y9+++aB....;
#X connect 8 0 17 0 32.................T....T2+++OE....08+++aB....;
#X connect 9 0 17 0 32.................S....H0++++D....R8+++aB....;
#X connect 10 0 17 0 32.................S....3x++++D....t7+++aB....;
#X connect 11 0 17 0 32.................T....rv+++OE....K7+++aB....;
#X connect 12 0 17 0 32.................T....ft+++OE....n6+++aB....;
#X connect 13 0 17 0 32.................S....Tr++++D....E6+++aB....;
#X connect 14 0 17 0 32.................T....Hp+++OE....h5+++aB....;
#X connect 15 0 17 0 32.................S....7m++++D....+4+++WB....;
#X connect 16 0 17 0 32.................S....rk++++D....a4+++WB....;
#X connect 17 0 1 0;
#X connect 18 0 3 0;
#X restore 652 802 pd midi;
#N canvas 733 172 450 300 random 0;
#X obj 652 170 sel 1;
#X obj 652 271 int;
#X obj 652 242 random 11;
#X obj 671 206 s bang;
#X obj 652 133 inlet;
#X obj 652 328 outlet;
#X connect 0 0 2 0;
#X connect 0 0 3 0;
#X connect 1 0 5 0;
#X connect 2 0 1 0;
#X connect 4 0 0 0;
#X restore 652 772 pd random;
#X obj 652 627 inlet~;
#X obj 686 1047 outlet~;
#X obj 504 627 loadbang;
#X msg 504 653 85;
#X obj 405 589 inlet env;
#X obj 804 627 inlet threshold;
#X obj 405 615 * 1000;
#X obj 405 641 + 50;
#X connect 0 0 2 0;
#X connect 1 0 11 1 32.................L....X0+++OC....V8+++KA....;
#X connect 1 0 13 0;
#X connect 2 0 1 0;
#X connect 3 0 5 0;
#X connect 4 0 3 0;
#X connect 5 0 10 0;
#X connect 6 0 4 0 32.................S....HB...vD....h....TB....;
#X connect 7 0 4 0 32.................S....L9++++D....i++++WB....;
#X connect 8 0 11 0;
#X connect 9 0 7 0;
#X connect 10 0 15 0;
#X connect 11 0 5 1 32.................wB...DL...Pr....AC...XK....;
#X connect 12 0 6 0;
#X connect 12 0 9 0 32.................C.....D...v......A...T.....;
#X connect 13 0 12 0;
#X connect 14 0 0 0;
#X connect 16 0 17 0;
#X connect 17 0 8 0;
#X connect 18 0 20 0;
#X connect 19 0 2 1 32.................t....X2+++uK....18+++aC....;
#X connect 20 0 21 0;
#X connect 21 0 8 0 32.................N....LF...fC....iA...PA....;
#X restore 368 331 pd lead;
#X msg 457 384 threshold 60;
#X msg 552 384 ratio 4;
#X obj 457 350 loadbang;
#X obj 240 296 r pot1 @hv_param;
#X obj 368 518 hv.reverb~;
#X obj 457 518 hv.reverb~;
#N canvas 733 172 450 300 verb 0;
#X msg 82 167 feedback \$1;
#X msg 169 167 dry-gain \$1;
#X msg 257 167 wet-gain \$1;
#X msg 349 167 lowcut \$1;
#X msg 437 167 highcut \$1;
#X msg 617 167 damp \$1;
#X msg 522 167 crossfreq \$1;
#X msg 522 140 3000;
#X msg 613 139 60;
#X msg 349 140 5;
#X msg 437 140 24000;
#X msg 688 139 0;
#X msg 687 167 predelay_ms \$1;
#X obj 82 100 loadbang;
#X obj 82 199 outlet;
#X obj 169 199 outlet;
#X obj 257 199 outlet;
#X obj 349 199 outlet;
#X obj 437 199 outlet;
#X obj 522 199 outlet;
#X obj 617 199 outlet;
#X obj 687 199 outlet;
#X msg 169 140 100;
#X msg 257 140 82;
#X msg 82 141 85;
#X connect 0 0 14 0;
#X connect 1 0 15 0;
#X connect 2 0 16 0;
#X connect 3 0 17 0;
#X connect 4 0 18 0;
#X connect 5 0 20 0;
#X connect 6 0 19 0;
#X connect 7 0 6 0;
#X connect 8 0 5 0;
#X connect 9 0 3 0;
#X connect 10 0 4 0;
#X connect 11 0 12 0;
#X connect 12 0 21 0;
#X connect 13 0 24 0;
#X connect 13 0 22 0;
#X connect 13 0 23 0;
#X connect 13 0 9 0;
#X connect 13 0 10 0;
#X connect 13 0 7 0;
#X connect 13 0 8 0;
#X connect 13 0 11 0;
#X connect 22 0 1 0;
#X connect 23 0 2 0;
#X connect 24 0 0 0;
#X restore 573 460 pd verb;
#X obj 368 367 *~ 1;
#X obj 620 350 *~ 2;
#X obj 696 349 *~ 2;
#X obj 439 270 loadbang;
#X msg 439 296 80;
#X connect 1 0 15 1;
#X connect 1 1 15 1;
#X connect 2 0 24 0 32.................V....fm+++uE....34+++uB....;
#X connect 2 0 25 0 32.................V....Pr+++uE....D6+++qB....;
#X connect 3 0 2 0;
#X connect 4 0 14 0;
#X connect 5 0 13 0;
#X connect 6 0 8 0 32.................G....Tv++++A....E7+++WA....;
#X connect 7 0 8 1 48.................G....L2++++A....y8+++e....P49+++G....Tt+++eE....;
#X connect 8 0 11 0;
#X connect 8 1 12 0;
#X connect 9 0 0 0;
#X connect 10 0 0 1;
#X connect 11 0 20 0;
#X connect 12 0 21 0;
#X connect 13 0 3 0;
#X connect 14 0 24 0;
#X connect 14 1 25 0 32.................p....DD...fJ....AA...LE....;
#X connect 15 0 23 0;
#X connect 16 0 8 2;
#X connect 17 0 8 2 32.................R....H5+++uD....h9+++CB....;
#X connect 18 0 16 0;
#X connect 18 0 17 0 32.................E....7E...PA....eA...7.....;
#X connect 19 0 15 0 32.................H.....H....B.....B....A....;
#X connect 20 0 9 0;
#X connect 21 0 10 0;
#X connect 22 0 20 1 32.................e....T1++++G....k8+++eB....;
#X connect 22 0 21 1 32.................e....36++++G....99+++eB....;
#X connect 22 1 20 1 32.................e....P0++++G....T8+++eB....;
#X connect 22 1 21 1 32.................e....z5++++G....s9+++eB....;
#X connect 22 2 20 1 32.................e....Lz++++G....C8+++eB....;
#X connect 22 2 21 1 32.................e....v4++++G....b9+++eB....;
#X connect 22 3 20 1 32.................e....Hy++++G....x7+++eB....;
#X connect 22 3 21 1 32.................e....r3++++G....K9+++eB....;
#X connect 22 4 20 1 32.................e....Dx++++G....g7+++eB....;
#X connect 22 4 21 1 32.................e....n2++++G....58+++eB....;
#X connect 22 5 20 1 32.................e.....w++++G....P7+++eB....;
#X connect 22 5 21 1 32.................e....j1++++G....o8+++eB....;
#X connect 22 6 20 1 32.................e....7u++++G....+6+++eB....;
#X connect 22 6 21 1 32.................e....f0++++G....X8+++eB....;
#X connect 22 7 20 1 32.................e....3t++++G....t6+++eB....;
#X connect 22 7 21 1 32.................e....bz++++G....G8+++eB....;
#X connect 23 0 8 0;
#X connect 23 0 8 1 32.................h....vB...fH....r....DC....;
#X connect 24 0 6 0 32.................M.........PC.........nA....;
#X connect 25 0 7 0 32.................N.........fC.........rA....;
#X connect 26 0 27 0;
#X connect 27 0 15 2 32.................H....f8+++OB....X++++CA....;
